<?xml version="1.0" encoding="utf-8"?>
<!-- Generator: Adobe Illustrator 14.0.0, SVG Export Plug-In . SVG Version: 6.00 Build 43363)  -->
<!DOCTYPE svg PUBLIC "-//W3C//DTD SVG 1.1//EN" "http://www.w3.org/Graphics/SVG/1.1/DTD/svg11.dtd">
<svg version="1.1" id="Calque_1" xmlns="http://www.w3.org/2000/svg" xmlns:xlink="http://www.w3.org/1999/xlink" x="0px" y="0px"
	 width="133px" height="115px" viewBox="0 0 133 115" enable-background="new 0 0 133 115" xml:space="preserve">
<path fill="#BDD027" d="M64.295,64.627c0.545,1.313-1.011-0.587-1.175-0.791c-0.999-1.256-2.157-2.677-2.786-4.171l-0.319-0.799
	l-1.461,0.036c-2.995,0.028-5.989-0.135-8.95-0.504c-0.805-0.102-1.612-0.217-2.419-0.344c0.397,0.994,0.798,1.977,1.195,2.934
	c0.544,1.314-1.011-0.586-1.175-0.791c-0.609-0.766-1.265-1.597-1.836-2.464c-5.214-0.972-10.377-2.556-15.085-4.991
	c5.694,14.041,19.456,23.947,35.541,23.947c20.69,0,37.544-16.391,38.308-36.894C93.291,51.397,77.768,57.816,61.98,58.766
	l0.301,0.852C62.942,61.332,63.624,63.008,64.295,64.627"/>
<rect x="0" y="86.412" fill="#BDD027" width="131.804" height="0.697"/>
<path fill="#FFFFFF" d="M92.684,13.125c2.762,2.661,3.567,5.587,4.316,9.73c7.64,5.33,6.643,11.06,6.215,14.378
	c0.548-0.155,1.959-0.403,4.033-0.393c0.947-1.849,3.002-3.285,5.616-4.197c2.616-0.913,2.577-1.953,6.673-3.606
	c0.664-2.586,3.627-4.113,5.758-4.281c1.465-3.27,5.107-5.847,7.705-6.354c-13.387-0.372-13.89,3.531-15.731,6.194
	c0.156-0.445,0.452-2.865,0.413-3.001c-0.037-0.142-2.409,2.274-3.388,2.948c-0.657-0.483-1.729-0.669-2.267-0.785
	c0,0-0.227-0.869-0.324-1.685c-0.127-1.09,0.314-2.785-0.283-2.542c-1.143,0.46-2.763,5.824-2.763,5.824l-0.735,0.281
	c-0.061-0.634-2.227-9.989-2.339-10.491c-0.111-0.502-1.517-4.089-2.832-5.913C101.441,7.41,96.344,3.6,89.974,0
	C92.426,3.456,93.136,9.402,92.684,13.125"/>
<path fill="#BDD027" d="M89.776,8.317c-6.556-5.201-14.855-8.309-23.883-8.309c-21.215,0-38.413,17.164-38.413,38.336
	c0,2.846,0.318,5.616,0.907,8.286c0.321,0.153,0.645,0.308,0.97,0.452c4.176,1.859,8.585,3.168,13.084,4.004l-0.722-1.806
	c-0.924-2.44-1.864-5.295-2.689-8.217l-8.45,0.81l3.052-3.39l4.518-0.727c-0.59-2.419-1.062-4.8-1.333-6.954
	c-0.333-2.646,0.117-7.502,0.735-10.373c0.046-0.193,0.086-0.389,0.134-0.583c1.578-6.332,5.651-10.748,11.252-13.856
	c0.703-0.39,4.518,5.889,4.254,6.035c-5.171,2.87-9.39,6.994-10.991,12.851c-0.271,0.992-0.48,1.994-0.644,3.003l-0.39,4.193
	c-0.051,1.712,0.037,3.437,0.214,5.165l8.192-1.318l-3.475,4.467l-4.226,0.405c0.502,2.832,1.235,5.649,2.102,8.408l0.809,2.293
	l0.744,0.114c2.554,0.343,5.127,0.532,7.698,0.567c0.875,0.013,1.752,0.004,2.627-0.017l1.483-0.054
	c-0.828-2.255-1.655-4.792-2.392-7.4l-8.45,0.811l3.052-3.391l4.518-0.727c-0.59-2.419-1.062-4.8-1.333-6.953
	c-0.334-2.646,0.117-7.502,0.735-10.374c0.047-0.193,0.087-0.39,0.135-0.583c1.578-6.334,5.652-10.749,11.253-13.857
	c0.702-0.391,4.516,5.888,4.253,6.035c-5.171,2.87-9.391,6.994-10.991,12.85c-0.271,0.991-0.48,1.993-0.642,3.004l-0.392,4.191
	c-0.05,1.712,0.038,3.439,0.214,5.166l8.193-1.318l-3.476,4.466l-4.226,0.406c0.45,2.534,1.09,5.053,1.84,7.533
	c3.455-0.258,6.888-0.75,10.254-1.508c-0.813-1.876-1.531-4.117-1.547-4.114c4.716-1.038,9.535-2.097,14.033-3.896
	c1.325-0.53,3.008-1.136,4.264-2.091c-0.909-0.4-1.838-0.757-2.771-1.092c-4.319-1.553-9.336-2.184-11.791-6.481
	c-1.305-2.287-3.482-5.725-2.391-8.482c1.272-3.21,4.203-5.379,7.338-6.607c0.703-0.275,3.605,6.486,3.277,6.615
	c-2.393,0.938-5.939,3.055-7.141,5.806c0.449,0.171,0.896,0.344,1.355,0.498c0.847,0.282,1.693,0.556,2.541,0.834
	c3.287,1.078,7.227,2.078,9.953,4.326c1.792,1.477,2.84,3.859,3.736,5.965c3.575-2.343,6.879-5.119,9.878-8.272
	c-0.033-0.935-0.189-1.909-0.591-2.914l-3.389-4.341c-0.394-0.328-0.812-0.656-1.287-0.986l-0.977-0.68l-0.211-1.171
	c-0.729-4.032-1.404-6.167-3.479-8.167l-1.036-0.997l0.174-1.427C89.976,11.502,89.948,9.863,89.776,8.317"/>
<polygon fill="#FFFFFF" points="0.917,97.141 3.564,97.141 3.564,96.39 0.917,96.39 0.917,94.055 3.783,94.055 3.783,93.294 
	0,93.294 0,100.318 0.917,100.318 "/>
<polygon fill="#FFFFFF" points="10.429,93.095 9.429,93.095 8.512,94.586 9.158,94.586 "/>
<path fill="#FFFFFF" d="M6.656,97.88c0,1.522,0.928,2.554,2.48,2.554c0.803,0,1.366-0.178,1.688-0.322l-0.166-0.656
	c-0.334,0.145-0.74,0.26-1.397,0.26c-0.928,0-1.709-0.512-1.73-1.752h3.543c0.021-0.104,0.031-0.239,0.031-0.427
	c0-0.928-0.428-2.366-2.084-2.366C7.553,95.17,6.656,96.358,6.656,97.88 M8.949,95.828c1.032,0,1.282,0.906,1.272,1.479H7.543
	C7.616,96.671,8.011,95.828,8.949,95.828"/>
<path fill="#FFFFFF" d="M17.971,92.92v3.012H17.95c-0.23-0.397-0.74-0.762-1.521-0.762c-1.219,0-2.272,1.021-2.261,2.699
	c0,1.532,0.948,2.566,2.167,2.566c0.823,0,1.427-0.43,1.699-0.992h0.031l0.042,0.875h0.812c-0.021-0.343-0.041-0.854-0.041-1.303
	V92.92H17.971z M17.971,98.203c0,0.146-0.01,0.271-0.042,0.396c-0.167,0.678-0.729,1.095-1.344,1.095
	c-0.98,0-1.491-0.846-1.491-1.867c0-1.104,0.562-1.938,1.511-1.938c0.688,0,1.189,0.479,1.324,1.053
	c0.032,0.115,0.042,0.273,0.042,0.386V98.203z"/>
<polygon fill="#FFFFFF" points="26.107,93.095 25.107,93.095 24.19,94.586 24.836,94.586 "/>
<path fill="#FFFFFF" d="M22.335,97.88c0,1.522,0.927,2.554,2.48,2.554c0.802,0,1.365-0.178,1.688-0.322l-0.166-0.656
	c-0.333,0.145-0.74,0.26-1.396,0.26c-0.928,0-1.709-0.512-1.73-1.752h3.543c0.021-0.104,0.031-0.239,0.031-0.427
	c0-0.928-0.427-2.366-2.084-2.366C23.231,95.17,22.335,96.358,22.335,97.88 M24.627,95.828c1.032,0,1.282,0.906,1.271,1.479H23.22
	C23.294,96.671,23.689,95.828,24.627,95.828"/>
<path fill="#FFFFFF" d="M31.127,100.318V97.63c0-0.146,0.011-0.303,0.031-0.427c0.125-0.688,0.584-1.168,1.229-1.168
	c0.125,0,0.219,0,0.313,0.021V95.19c-0.083-0.011-0.156-0.021-0.25-0.021c-0.615,0-1.178,0.429-1.407,1.104h-0.032l-0.041-1.001
	h-0.803c0.032,0.471,0.042,0.98,0.042,1.576v3.469H31.127z"/>
<path fill="#FFFFFF" d="M35.461,98.984c0,0.73,0.521,1.451,1.542,1.451c0.718,0,1.26-0.355,1.542-0.753h0.031l0.073,0.638h0.823
	c-0.052-0.346-0.073-0.772-0.073-1.211v-1.887c0-1-0.375-2.053-1.917-2.053c-0.637,0-1.251,0.177-1.667,0.438l0.208,0.614
	c0.354-0.238,0.843-0.375,1.323-0.375c1.032-0.01,1.147,0.75,1.147,1.156v0.105C36.545,97.098,35.461,97.765,35.461,98.984
	 M38.514,97.745v0.874c0,0.084-0.01,0.188-0.042,0.293c-0.145,0.428-0.572,0.845-1.24,0.845c-0.458,0-0.854-0.271-0.854-0.876
	C36.378,97.9,37.514,97.724,38.514,97.745"/>
<path fill="#FFFFFF" d="M43.337,94.336v0.938h-0.782v0.698h0.782v2.752c0,0.594,0.104,1.042,0.354,1.324
	c0.218,0.238,0.562,0.387,0.99,0.387c0.354,0,0.636-0.064,0.812-0.127l-0.041-0.698c-0.136,0.042-0.282,0.062-0.531,0.062
	c-0.512,0-0.688-0.354-0.688-0.979v-2.721h1.312v-0.698h-1.312v-1.208L43.337,94.336z"/>
<rect x="48.868" y="95.273" fill="#FFFFFF" width="0.917" height="5.045"/>
<path fill="#FFFFFF" d="M49.327,93.283c-0.343,0-0.573,0.261-0.573,0.574c0,0.312,0.22,0.562,0.552,0.562
	c0.366,0,0.583-0.251,0.583-0.562C49.889,93.534,49.661,93.283,49.327,93.283"/>
<path fill="#FFFFFF" d="M55.734,95.17c-1.386,0-2.5,0.99-2.5,2.669c0,1.594,1.063,2.595,2.417,2.595
	c1.209,0,2.511-0.812,2.511-2.679C58.162,96.223,57.183,95.17,55.734,95.17 M55.693,99.747c-0.897,0-1.521-0.834-1.521-1.939
	c0-0.95,0.468-1.95,1.542-1.95c1.084,0,1.51,1.074,1.51,1.93C57.224,98.923,56.568,99.747,55.693,99.747"/>
<path fill="#FFFFFF" d="M65.903,100.318v-3.002c0-1.729-1.084-2.146-1.782-2.146c-0.833,0-1.417,0.47-1.667,0.938h-0.02
	l-0.053-0.834h-0.813c0.032,0.418,0.042,0.834,0.042,1.366v3.679h0.917v-3.033c0-0.156,0.021-0.312,0.063-0.428
	c0.167-0.51,0.636-0.938,1.23-0.938c0.864,0,1.167,0.679,1.167,1.49v2.908H65.903z"/>
<polygon fill="#FFFFFF" points="74.204,100.318 75.12,100.318 75.12,97.141 77.766,97.141 77.766,96.39 75.12,96.39 75.12,94.055 
	77.986,94.055 77.986,93.293 74.204,93.293 "/>
<path fill="#FFFFFF" d="M82.109,96.274H82.08l-0.043-1h-0.802c0.03,0.47,0.043,0.979,0.043,1.575v3.469h0.915v-2.689
	c0-0.145,0.01-0.302,0.031-0.426c0.126-0.688,0.584-1.168,1.229-1.168c0.127,0,0.22,0,0.313,0.021V95.19
	c-0.084-0.011-0.155-0.021-0.25-0.021C82.904,95.17,82.341,95.599,82.109,96.274"/>
<path fill="#FFFFFF" d="M86.527,98.984c0,0.73,0.52,1.451,1.541,1.451c0.72,0,1.262-0.355,1.543-0.753h0.032l0.072,0.638h0.823
	c-0.053-0.346-0.072-0.772-0.072-1.211v-1.887c0-1-0.375-2.053-1.918-2.053c-0.637,0-1.25,0.177-1.668,0.438l0.209,0.614
	c0.355-0.238,0.845-0.375,1.324-0.375c1.031-0.01,1.146,0.75,1.146,1.156v0.105C87.612,97.098,86.527,97.765,86.527,98.984
	 M89.582,97.745v0.874c0,0.084-0.012,0.188-0.043,0.293c-0.146,0.428-0.574,0.845-1.24,0.845c-0.458,0-0.854-0.271-0.854-0.876
	C87.445,97.9,88.58,97.724,89.582,97.745"/>
<path fill="#FFFFFF" d="M96.748,95.17c-0.834,0-1.416,0.47-1.668,0.938h-0.02l-0.053-0.834h-0.813
	c0.031,0.418,0.043,0.834,0.043,1.366v3.679h0.917v-3.033c0-0.156,0.021-0.312,0.062-0.428c0.167-0.51,0.637-0.938,1.229-0.938
	c0.864,0,1.167,0.679,1.167,1.49v2.908h0.917v-3.002C98.53,95.588,97.445,95.17,96.748,95.17"/>
<path fill="#FFFFFF" d="M104.654,95.9c0.5,0,0.844,0.125,1.062,0.24l0.209-0.7c-0.25-0.136-0.729-0.271-1.271-0.271
	c-1.646,0-2.711,1.137-2.711,2.679c0,1.397,0.826,2.388,2.107,2.544l-0.438,0.801c0.489,0.053,0.803,0.168,0.812,0.439
	c0,0.25-0.208,0.334-0.448,0.334c-0.208,0-0.417-0.054-0.571-0.146l-0.157,0.471c0.197,0.113,0.49,0.176,0.729,0.176
	c0.563,0,1.084-0.24,1.084-0.865c0-0.428-0.343-0.688-0.729-0.761l0.261-0.417c0.624-0.01,1.104-0.188,1.312-0.291l-0.154-0.689
	c-0.252,0.114-0.604,0.24-1.128,0.24c-0.999,0-1.751-0.719-1.751-1.876C102.871,96.755,103.498,95.9,104.654,95.9"/>
<path fill="#FFFFFF" d="M108.863,98.984c0,0.73,0.521,1.451,1.541,1.451c0.719,0,1.262-0.355,1.543-0.753h0.031l0.072,0.638h0.823
	c-0.052-0.346-0.072-0.772-0.072-1.211v-1.887c0-1-0.376-2.053-1.918-2.053c-0.636,0-1.249,0.177-1.667,0.438l0.209,0.614
	c0.354-0.238,0.844-0.375,1.322-0.375c1.032-0.01,1.146,0.75,1.146,1.156v0.105C109.946,97.098,108.863,97.765,108.863,98.984
	 M111.915,97.745v0.874c0,0.084-0.01,0.188-0.041,0.293c-0.146,0.428-0.573,0.845-1.239,0.845c-0.459,0-0.855-0.271-0.855-0.876
	C109.779,97.9,110.915,97.724,111.915,97.745"/>
<path fill="#FFFFFF" d="M117.029,93.283c-0.344,0-0.572,0.261-0.572,0.574c0,0.312,0.221,0.562,0.554,0.562
	c0.363,0,0.581-0.251,0.581-0.562C117.592,93.534,117.363,93.283,117.029,93.283"/>
<rect x="116.572" y="95.273" fill="#FFFFFF" width="0.916" height="5.045"/>
<path fill="#FFFFFF" d="M122.396,99.747c-0.46,0-0.939-0.189-1.22-0.354l-0.219,0.688c0.354,0.209,0.865,0.354,1.418,0.354
	c1.178,0,1.875-0.625,1.875-1.521c0-0.751-0.458-1.189-1.322-1.513c-0.657-0.26-0.949-0.447-0.949-0.864
	c0-0.376,0.292-0.688,0.834-0.688c0.468,0,0.833,0.178,1.031,0.303l0.219-0.668c-0.271-0.178-0.719-0.312-1.229-0.312
	c-1.074,0-1.74,0.668-1.74,1.481c0,0.604,0.426,1.094,1.343,1.427c0.667,0.25,0.928,0.479,0.928,0.916
	C123.364,99.423,123.053,99.747,122.396,99.747"/>
<path fill="#FFFFFF" d="M131.804,97.536c0-0.928-0.427-2.366-2.082-2.366c-1.472,0-2.366,1.188-2.366,2.711
	c0,1.521,0.926,2.553,2.479,2.553c0.803,0,1.365-0.178,1.689-0.324l-0.168-0.655c-0.334,0.146-0.738,0.261-1.396,0.261
	c-0.928,0-1.709-0.512-1.73-1.752h3.542C131.793,97.859,131.804,97.725,131.804,97.536 M128.24,97.307
	c0.072-0.635,0.469-1.48,1.407-1.48c1.03,0,1.28,0.908,1.271,1.48H128.24z"/>
<path fill="#FFFFFF" d="M18.908,110.372c0,1.532,0.948,2.563,2.167,2.563c0.823,0,1.427-0.429,1.698-0.99h0.032l0.041,0.877h0.813
	c-0.021-0.346-0.042-0.857-0.042-1.305v-6.096h-0.906v3.012h-0.021c-0.23-0.396-0.74-0.762-1.521-0.762
	C19.949,107.672,18.897,108.693,18.908,110.372 M22.67,109.443c0.031,0.115,0.042,0.271,0.042,0.387v0.875
	c0,0.145-0.011,0.271-0.042,0.396c-0.167,0.679-0.729,1.095-1.344,1.095c-0.98,0-1.492-0.845-1.492-1.865
	c0-1.105,0.563-1.938,1.512-1.938C22.035,108.392,22.535,108.871,22.67,109.443"/>
<path fill="#FFFFFF" d="M27.075,110.383c0,1.521,0.928,2.553,2.48,2.553c0.802,0,1.365-0.178,1.688-0.324l-0.167-0.656
	c-0.333,0.146-0.739,0.261-1.396,0.261c-0.927,0-1.709-0.513-1.729-1.75h3.543c0.021-0.104,0.031-0.239,0.031-0.428
	c0-0.928-0.428-2.364-2.085-2.364C27.971,107.674,27.075,108.86,27.075,110.383 M30.639,109.809h-2.678
	c0.073-0.635,0.468-1.48,1.407-1.48C30.399,108.328,30.649,109.236,30.639,109.809"/>
<path fill="#FFFFFF" d="M39.273,107.59c0,0.979,0.709,1.583,1.855,2c0.948,0.354,1.324,0.739,1.324,1.387
	c0,0.709-0.542,1.197-1.471,1.197c-0.625,0-1.208-0.197-1.614-0.457l-0.24,0.76c0.375,0.248,1.115,0.459,1.792,0.459
	c1.657,0,2.45-0.949,2.45-2.033c0-1.031-0.594-1.604-1.784-2.062c-0.968-0.375-1.396-0.699-1.396-1.355
	c0-0.479,0.365-1.053,1.324-1.053c0.635,0,1.105,0.199,1.322,0.333l0.251-0.739c-0.303-0.176-0.834-0.344-1.543-0.344
	C40.18,105.682,39.273,106.494,39.273,107.59"/>
<path fill="#FFFFFF" d="M47.722,108.641h-0.02l-0.053-0.863h-0.812c0.02,0.478,0.041,1,0.041,1.646v5.46h0.907v-2.739h0.021
	c0.302,0.499,0.885,0.792,1.553,0.792c1.188,0,2.303-0.897,2.303-2.709c0-1.523-0.917-2.555-2.147-2.555
	C48.691,107.672,48.088,108.026,47.722,108.641 M49.234,108.402c0.969,0,1.5,0.865,1.5,1.864c0,1.157-0.562,1.949-1.533,1.949
	c-0.656,0-1.208-0.437-1.375-1.073c-0.031-0.115-0.041-0.24-0.041-0.375v-0.875c0-0.115,0.031-0.25,0.062-0.365
	C48.014,108.84,48.609,108.402,49.234,108.402"/>
<path fill="#FFFFFF" d="M59.183,110.038c0-0.928-0.427-2.364-2.084-2.364c-1.47,0-2.367,1.187-2.367,2.709
	c0,1.521,0.928,2.553,2.482,2.553c0.802,0,1.365-0.178,1.688-0.324l-0.167-0.656c-0.333,0.146-0.739,0.261-1.396,0.261
	c-0.927,0-1.709-0.513-1.73-1.75h3.544C59.173,110.361,59.183,110.227,59.183,110.038 M55.618,109.809
	c0.074-0.635,0.468-1.48,1.408-1.48c1.031,0,1.281,0.908,1.271,1.48H55.618z"/>
<polygon fill="#FFFFFF" points="56.587,107.089 57.233,107.089 58.505,105.598 57.505,105.598 "/>
<rect x="62.608" y="105.422" fill="#FFFFFF" width="0.917" height="7.398"/>
<polygon fill="#FFFFFF" points="70.767,105.598 69.766,105.598 68.849,107.089 69.494,107.089 "/>
<path fill="#FFFFFF" d="M66.994,110.383c0,1.521,0.928,2.553,2.48,2.553c0.803,0,1.365-0.178,1.687-0.324l-0.166-0.656
	c-0.331,0.146-0.739,0.261-1.396,0.261c-0.929,0-1.709-0.511-1.73-1.751h3.543c0.021-0.104,0.031-0.239,0.031-0.426
	c0-0.929-0.427-2.367-2.084-2.367C67.891,107.672,66.994,108.86,66.994,110.383 M69.285,108.329c1.033,0,1.283,0.906,1.273,1.479
	h-2.68C67.953,109.173,68.348,108.329,69.285,108.329"/>
<path fill="#FFFFFF" d="M74.504,110.341c0,1.595,1.062,2.595,2.42,2.595c1.208,0,2.511-0.813,2.511-2.679
	c0-1.532-0.98-2.585-2.43-2.585C75.619,107.672,74.504,108.662,74.504,110.341 M78.496,110.288c0,1.136-0.656,1.96-1.531,1.96
	c-0.896,0-1.522-0.835-1.522-1.939c0-0.948,0.47-1.948,1.544-1.948C78.068,108.36,78.496,109.434,78.496,110.288"/>
<rect x="82.881" y="105.422" fill="#FFFFFF" width="0.917" height="7.398"/>
<path fill="#FFFFFF" d="M87.268,110.342c0,1.594,1.062,2.594,2.417,2.594c1.208,0,2.512-0.813,2.512-2.678
	c0-1.533-0.979-2.584-2.428-2.584C88.381,107.674,87.268,108.662,87.268,110.342 M89.746,108.36c1.085,0,1.512,1.073,1.512,1.928
	c0,1.137-0.658,1.96-1.532,1.96c-0.896,0-1.521-0.835-1.521-1.938C88.205,109.36,88.673,108.36,89.746,108.36"/>
<path fill="#FFFFFF" d="M97.424,114.28c-0.625,0-1.147-0.188-1.481-0.407l-0.228,0.709c0.405,0.27,1.074,0.418,1.678,0.418
	c0.637,0,1.346-0.158,1.845-0.604c0.479-0.448,0.72-1.148,0.72-2.315v-2.927c0-0.604,0.012-1.022,0.041-1.376h-0.814l-0.03,0.76
	h-0.021c-0.229-0.417-0.698-0.865-1.574-0.865c-1.165,0-2.281,0.959-2.281,2.669c0,1.396,0.896,2.458,2.146,2.458
	c0.782,0,1.334-0.376,1.605-0.844h0.02v0.552C99.049,113.789,98.362,114.28,97.424,114.28 M99.039,110.674
	c0,0.156-0.021,0.333-0.074,0.49c-0.186,0.582-0.696,0.938-1.27,0.938c-0.98,0-1.49-0.824-1.49-1.814c0-1.168,0.625-1.906,1.5-1.906
	c0.679,0,1.115,0.438,1.283,0.979c0.041,0.114,0.051,0.251,0.051,0.407V110.674z"/>
<path fill="#FFFFFF" d="M104.154,105.785c-0.344,0-0.574,0.261-0.574,0.574c0,0.312,0.219,0.562,0.553,0.562
	c0.364,0,0.583-0.249,0.583-0.562C104.716,106.037,104.486,105.785,104.154,105.785"/>
<rect x="103.695" y="107.775" fill="#FFFFFF" width="0.916" height="5.045"/>
<path fill="#FFFFFF" d="M108.061,110.383c0,1.521,0.925,2.553,2.479,2.553c0.803,0,1.366-0.178,1.689-0.324l-0.168-0.656
	c-0.334,0.146-0.74,0.261-1.396,0.261c-0.929,0-1.71-0.511-1.73-1.751h3.544c0.021-0.104,0.031-0.239,0.031-0.426
	c0-0.929-0.428-2.367-2.086-2.367C108.955,107.672,108.061,108.86,108.061,110.383 M110.354,108.329c1.029,0,1.279,0.906,1.27,1.479
	h-2.679C109.019,109.173,109.414,108.329,110.354,108.329"/>
</svg>
